<?xml version="1.0" encoding="UTF-8"?>
<svg id="Layer_2" data-name="Layer 2" xmlns="http://www.w3.org/2000/svg" viewBox="0 0 1700.09 582.97">
  <defs>
    <style>
      .cls-1 {
        fill: #fff;
      }
    </style>
  </defs>
  <g id="Layer_11" data-name="Layer 11">
    <g>
      <path class="cls-1" d="M1084.81,439.96v-21.82c-65.42,103.61-230.17,128.62-323.51,46.75-8.21,23.03-27.44,40.87-51.32,47.12,111.23,100.61,297.06,93.37,400.01-16.29-15.43-13.66-25.19-33.59-25.19-55.77Z"/>
      <path class="cls-1" d="M759.94,113.52c.6,1.44,1.13,2.89,1.63,4.35,93.4-81.64,257.88-56.51,323.23,46.97-1.99-27.93,2.3-60.08,24.66-78.12-102.75-108.86-287.5-116.18-398.6-16.53,21.84,5.97,40.1,21.68,49.07,43.33Z"/>
      <path class="cls-1" d="M182.93,405.48c-63.13,0-114.48-51.36-114.48-114.49-1.31-129.28,187.05-156.56,223.65-34.48h-109.17c-45.31.77-45.33,68.19,0,68.96,0,0,180.17,0,180.17,0,28.96-140.93-119.55-261.6-251.44-203.39C-6.46,169.93-38.92,331.9,53.42,420.5c88.38,91.25,246.75,61.15,297.01-55.03h-80.63c-21,24.48-52.16,40.01-86.87,40.01Z"/>
      <path class="cls-1" d="M786.88,291.49c2.69,150.46,226.3,150.42,228.97,0-2.7-150.46-226.3-150.44-228.97,0Z"/>
      <path class="cls-1" d="M725.61,439.96c.05-18.81-15.35-34.51-34.48-34.48-39.11-.03-173.4.02-214.69,0,58.92-59.19,180.73-180.54,239.07-239.07,21.73-20.36,5.45-59.87-24.38-58.87,0,0-16.54,0-16.54,0h-281.4c-27.74-.87-44.73,33.74-27.58,55.18,6.29,8.37,16.3,13.79,27.58,13.79h214.69s-239.07,239.07-239.07,239.07c-21.74,20.37-5.44,59.86,24.39,58.87,0,0,280.59,0,280.59,0,25.29,2.44,50.77-4.69,51.83-34.48Z"/>
      <path class="cls-1" d="M1457.23,107.54c-19.04,0-34.48,15.44-34.48,34.48v263.45h-228.97V142.02c0-19.04-15.44-34.48-34.48-34.48-19.01,0-34.48,15.42-34.48,34.48,0,0,0,297.94,0,297.94,0,19.08,15.48,34.49,34.48,34.48,0,0,297.94,0,297.94,0,19.04,0,34.48-15.44,34.48-34.48,0,0,0-297.94,0-297.94,0-19.04-15.44-34.48-34.48-34.48Z"/>
      <path class="cls-1" d="M1665.51,405.47h-15.17v-228.97c60.08,8.67,66.49-64.81,15.17-68.97,0,0-99.31,0-99.31,0-19.04,0-34.48,15.44-34.48,34.48.8,28.16,25.02,37.13,49.66,34.48v228.97c-60.09-8.67-66.49,64.81-15.17,68.97,0,0,99.31,0,99.31,0,45.3-.76,45.35-68.2,0-68.97Z"/>
    </g>
  </g>
</svg>